<svg width="480" height="239" viewBox="0 0 480 239" fill="none" xmlns="http://www.w3.org/2000/svg">
<path d="M142.054 26.4821H145V29.4286H142.054V26.4821ZM145 26.4821H147.946V29.4286H145V26.4821ZM145 23.5357H147.946V26.4821H145V23.5357ZM147.946 26.4821H150.893V29.4286H147.946V26.4821ZM147.946 29.4286H150.893V32.375H147.946V29.4286ZM150.893 29.4286H153.839V32.375H150.893V29.4286ZM145 29.4286H147.946V32.375H145V29.4286ZM142.054 29.4286H145V32.375H142.054V29.4286ZM139.107 29.4286H142.054V32.375H139.107V29.4286ZM139.107 32.375H142.054V35.3214H139.107V32.375ZM136.161 32.375H139.107V35.3214H136.161V32.375ZM142.054 32.375H145V35.3214H142.054V32.375ZM139.107 35.3214H142.054V38.2679H139.107V35.3214ZM139.107 38.2679H142.054V41.2143H139.107V38.2679ZM139.107 41.2143H142.054V44.1607H139.107V41.2143ZM142.054 41.2143H145V44.1607H142.054V41.2143ZM145 41.2143H147.946V44.1607H145V41.2143ZM147.946 41.2143H150.893V44.1607H147.946V41.2143ZM150.893 41.2143H153.839V44.1607H150.893V41.2143ZM153.839 41.2143H156.786V44.1607H153.839V41.2143ZM153.839 38.2679H156.786V41.2143H153.839V38.2679ZM153.839 35.3214H156.786V38.2679H153.839V35.3214ZM153.839 32.375H156.786V35.3214H153.839V32.375ZM150.893 32.375H153.839V35.3214H150.893V32.375ZM147.946 32.375H150.893V35.3214H147.946V32.375ZM150.893 35.3214H153.839V38.2679H150.893V35.3214ZM150.893 38.2679H153.839V41.2143H150.893V38.2679ZM150.893 44.1607H153.839V47.1071H150.893V44.1607ZM153.839 44.1607H156.786V47.1071H153.839V44.1607ZM153.839 47.1071H156.786V50.0536H153.839V47.1071ZM153.839 50.0536H156.786V53H153.839V50.0536ZM150.893 50.0536H153.839V53H150.893V50.0536ZM150.893 47.1071H153.839V50.0536H150.893V47.1071ZM147.946 44.1607H150.893V47.1071H147.946V44.1607ZM145 44.1607H147.946V47.1071H145V44.1607ZM142.054 44.1607H145V47.1071H142.054V44.1607ZM139.107 44.1607H142.054V47.1071H139.107V44.1607ZM139.107 47.1071H142.054V50.0536H139.107V47.1071ZM139.107 50.0536H142.054V53H139.107V50.0536ZM136.161 50.0536H139.107V53H136.161V50.0536ZM136.161 47.1071H139.107V50.0536H136.161V47.1071ZM136.161 44.1607H139.107V47.1071H136.161V44.1607ZM136.161 41.2143H139.107V44.1607H136.161V41.2143ZM136.161 38.2679H139.107V41.2143H136.161V38.2679ZM136.161 35.3214H139.107V38.2679H136.161V35.3214ZM162.49 32.375H165.436V35.3214H162.49V32.375ZM162.49 29.4286H165.436V32.375H162.49V29.4286ZM165.436 29.4286H168.383V32.375H165.436V29.4286ZM165.436 32.375H168.383V35.3214H165.436V32.375ZM165.436 35.3214H168.383V38.2679H165.436V35.3214ZM165.436 38.2679H168.383V41.2143H165.436V38.2679ZM165.436 41.2143H168.383V44.1607H165.436V41.2143ZM162.49 41.2143H165.436V44.1607H162.49V41.2143ZM162.49 38.2679H165.436V41.2143H162.49V38.2679ZM162.49 35.3214H165.436V38.2679H162.49V35.3214ZM162.49 44.1607H165.436V47.1071H162.49V44.1607ZM165.436 44.1607H168.383V47.1071H165.436V44.1607ZM165.436 47.1071H168.383V50.0536H165.436V47.1071ZM165.436 50.0536H168.383V53H165.436V50.0536ZM162.49 50.0536H165.436V53H162.49V50.0536ZM162.49 47.1071H165.436V50.0536H162.49V47.1071ZM177.222 50.0536H180.168V53H177.222V50.0536ZM180.168 50.0536H183.115V53H180.168V50.0536ZM180.168 47.1071H183.115V50.0536H180.168V47.1071ZM180.168 44.1607H183.115V47.1071H180.168V44.1607ZM180.168 41.2143H183.115V44.1607H180.168V41.2143ZM180.168 38.2679H183.115V41.2143H180.168V38.2679ZM180.168 35.3214H183.115V38.2679H180.168V35.3214ZM180.168 32.375H183.115V35.3214H180.168V32.375ZM177.222 38.2679H180.168V41.2143H177.222V38.2679ZM177.222 41.2143H180.168V44.1607H177.222V41.2143ZM177.222 44.1607H180.168V47.1071H177.222V44.1607ZM177.222 47.1071H180.168V50.0536H177.222V47.1071ZM177.222 35.3214H180.168V38.2679H177.222V35.3214ZM168.383 32.375H171.329V35.3214H168.383V32.375ZM171.329 32.375H174.275V35.3214H171.329V32.375ZM174.275 32.375H177.222V35.3214H174.275V32.375ZM174.275 29.4286H177.222V32.375H174.275V29.4286ZM177.222 29.4286H180.168V32.375H177.222V29.4286ZM177.222 32.375H180.168V35.3214H177.222V32.375ZM171.329 29.4286H174.275V32.375H171.329V29.4286ZM206.497 53H203.551V50.0536H206.497V53ZM206.497 50.0536H203.551V47.1071H206.497V50.0536ZM203.551 50.0536H200.605V47.1071H203.551V50.0536ZM200.605 53H197.658V50.0536H200.605V53ZM197.658 53H194.712V50.0536H197.658V53ZM194.712 53H191.765V50.0536H194.712V53ZM194.712 50.0536H191.765V47.1071H194.712V50.0536ZM197.658 50.0536H194.712V47.1071H197.658V50.0536ZM191.765 50.0536H188.819V47.1071H191.765V50.0536ZM191.765 47.1071H188.819V44.1607H191.765V47.1071ZM191.765 35.3214H188.819V32.375H191.765V35.3214ZM194.712 35.3214H191.765V32.375H194.712V35.3214ZM194.712 47.1071H191.765V44.1607H194.712V47.1071ZM197.658 35.3214H194.712V32.375H197.658V35.3214ZM194.712 32.375H191.765V29.4286H194.712V32.375ZM197.658 32.375H194.712V29.4286H197.658V32.375ZM200.605 32.375H197.658V29.4286H200.605V32.375ZM203.551 32.375H200.605V29.4286H203.551V32.375ZM206.497 32.375H203.551V29.4286H206.497V32.375ZM206.497 35.3214H203.551V32.375H206.497V35.3214ZM203.551 35.3214H200.605V32.375H203.551V35.3214ZM206.497 38.2679H203.551V35.3214H206.497V38.2679ZM209.444 35.3214H206.497V32.375H209.444V35.3214ZM209.444 38.2679H206.497V35.3214H209.444V38.2679ZM209.444 41.2143H206.497V38.2679H209.444V41.2143ZM209.444 44.1607H206.497V41.2143H209.444V44.1607ZM209.444 47.1071H206.497V44.1607H209.444V47.1071ZM209.444 50.0536H206.497V47.1071H209.444V50.0536ZM206.497 47.1071H203.551V44.1607H206.497V47.1071ZM206.497 44.1607H203.551V41.2143H206.497V44.1607ZM206.497 41.2143H203.551V38.2679H206.497V41.2143ZM200.605 35.3214H197.658V32.375H200.605V35.3214ZM200.605 50.0536H197.658V47.1071H200.605V50.0536ZM206.497 50.0536H209.444V53H206.497V50.0536ZM200.605 38.2679H203.551V41.2143H200.605V38.2679ZM197.658 38.2679H200.605V41.2143H197.658V38.2679ZM194.712 38.2679H197.658V41.2143H194.712V38.2679ZM191.765 38.2679H194.712V41.2143H191.765V38.2679ZM188.819 41.2143H191.765V44.1607H188.819V41.2143ZM191.765 41.2143H194.712V44.1607H191.765V41.2143ZM200.605 41.2143H203.551V44.1607H200.605V41.2143ZM197.658 41.2143H200.605V44.1607H197.658V41.2143ZM194.712 41.2143H197.658V44.1607H194.712V41.2143ZM215.148 32.375H218.094V35.3214H215.148V32.375ZM218.094 35.3214H221.041V38.2679H218.094V35.3214ZM215.148 35.3214H218.094V38.2679H215.148V35.3214ZM215.148 38.2679H218.094V41.2143H215.148V38.2679ZM218.094 38.2679H221.041V41.2143H218.094V38.2679ZM218.094 41.2143H221.041V44.1607H218.094V41.2143ZM221.041 41.2143H223.987V44.1607H221.041V41.2143ZM223.987 41.2143H226.934V44.1607H223.987V41.2143ZM226.934 38.2679H229.88V41.2143H226.934V38.2679ZM223.987 38.2679H226.934V41.2143H223.987V38.2679ZM221.041 38.2679H223.987V41.2143H221.041V38.2679ZM226.934 41.2143H229.88V44.1607H226.934V41.2143ZM229.88 41.2143H232.827V44.1607H229.88V41.2143ZM229.88 44.1607H232.827V47.1071H229.88V44.1607ZM226.934 44.1607H229.88V47.1071H226.934V44.1607ZM226.934 47.1071H229.88V50.0536H226.934V47.1071ZM229.88 47.1071H232.827V50.0536H229.88V47.1071ZM226.934 50.0536H229.88V53H226.934V50.0536ZM223.987 47.1071H226.934V50.0536H223.987V47.1071ZM221.041 47.1071H223.987V50.0536H221.041V47.1071ZM218.094 47.1071H221.041V50.0536H218.094V47.1071ZM215.148 47.1071H218.094V50.0536H215.148V47.1071ZM218.094 50.0536H221.041V53H218.094V50.0536ZM221.041 50.0536H223.987V53H221.041V50.0536ZM223.987 50.0536H226.934V53H223.987V50.0536ZM229.88 32.375H232.827V35.3214H229.88V32.375ZM226.934 32.375H229.88V35.3214H226.934V32.375ZM226.934 29.4286H229.88V32.375H226.934V29.4286ZM223.987 29.4286H226.934V32.375H223.987V29.4286ZM221.041 29.4286H223.987V32.375H221.041V29.4286ZM218.094 29.4286H221.041V32.375H218.094V29.4286ZM218.094 32.375H221.041V35.3214H218.094V32.375ZM221.041 32.375H223.987V35.3214H221.041V32.375ZM223.987 32.375H226.934V35.3214H223.987V32.375ZM250.309 47.1071H253.255V50.0536H250.309V47.1071ZM250.309 50.0536H253.255V53H250.309V50.0536ZM247.362 50.0536H250.309V53H247.362V50.0536ZM247.362 47.1071H250.309V50.0536H247.362V47.1071ZM244.416 50.0536H247.362V53H244.416V50.0536ZM244.416 47.1071H247.362V50.0536H244.416V47.1071ZM241.469 47.1071H244.416V50.0536H241.469V47.1071ZM241.469 44.1607H244.416V47.1071H241.469V44.1607ZM241.469 41.2143H244.416V44.1607H241.469V41.2143ZM241.469 38.2679H244.416V41.2143H241.469V38.2679ZM241.469 35.3214H244.416V38.2679H241.469V35.3214ZM241.469 32.375H244.416V35.3214H241.469V32.375ZM244.416 41.2143H247.362V44.1607H244.416V41.2143ZM244.416 44.1607H247.362V47.1071H244.416V44.1607ZM244.416 38.2679H247.362V41.2143H244.416V38.2679ZM244.416 35.3214H247.362V38.2679H244.416V35.3214ZM244.416 23.5357H247.362V26.4821H244.416V23.5357ZM244.416 26.4821H247.362V29.4286H244.416V26.4821ZM244.416 29.4286H247.362V32.375H244.416V29.4286ZM244.416 32.375H247.362V35.3214H244.416V32.375ZM241.469 29.4286H244.416V32.375H241.469V29.4286ZM238.523 32.375H241.469V35.3214H238.523V32.375ZM247.362 32.375H250.309V35.3214H247.362V32.375ZM250.309 32.375H253.255V35.3214H250.309V32.375ZM241.469 26.4821H244.416V29.4286H241.469V26.4821ZM238.523 35.3214H241.469V38.2679H238.523V35.3214ZM247.362 35.3214H250.309V38.2679H247.362V35.3214ZM250.309 35.3214H253.255V38.2679H250.309V35.3214ZM276.622 53H273.676V50.0536H276.622V53ZM276.622 50.0536H273.676V47.1071H276.622V50.0536ZM273.676 50.0536H270.73V47.1071H273.676V50.0536ZM270.73 53H267.783V50.0536H270.73V53ZM267.783 53H264.837V50.0536H267.783V53ZM264.837 53H261.89V50.0536H264.837V53ZM264.837 50.0536H261.89V47.1071H264.837V50.0536ZM267.783 50.0536H264.837V47.1071H267.783V50.0536ZM261.89 50.0536H258.944V47.1071H261.89V50.0536ZM261.89 47.1071H258.944V44.1607H261.89V47.1071ZM261.89 35.3214H258.944V32.375H261.89V35.3214ZM264.837 35.3214H261.89V32.375H264.837V35.3214ZM264.837 47.1071H261.89V44.1607H264.837V47.1071ZM267.783 35.3214H264.837V32.375H267.783V35.3214ZM264.837 32.375H261.89V29.4286H264.837V32.375ZM267.783 32.375H264.837V29.4286H267.783V32.375ZM270.73 32.375H267.783V29.4286H270.73V32.375ZM273.676 32.375H270.73V29.4286H273.676V32.375ZM276.622 32.375H273.676V29.4286H276.622V32.375ZM276.622 35.3214H273.676V32.375H276.622V35.3214ZM273.676 35.3214H270.73V32.375H273.676V35.3214ZM276.622 38.2679H273.676V35.3214H276.622V38.2679ZM279.569 35.3214H276.622V32.375H279.569V35.3214ZM279.569 38.2679H276.622V35.3214H279.569V38.2679ZM279.569 41.2143H276.622V38.2679H279.569V41.2143ZM279.569 44.1607H276.622V41.2143H279.569V44.1607ZM279.569 47.1071H276.622V44.1607H279.569V47.1071ZM279.569 50.0536H276.622V47.1071H279.569V50.0536ZM276.622 47.1071H273.676V44.1607H276.622V47.1071ZM276.622 44.1607H273.676V41.2143H276.622V44.1607ZM276.622 41.2143H273.676V38.2679H276.622V41.2143ZM270.73 35.3214H267.783V32.375H270.73V35.3214ZM270.73 50.0536H267.783V47.1071H270.73V50.0536ZM276.622 50.0536H279.569V53H276.622V50.0536ZM270.73 38.2679H273.676V41.2143H270.73V38.2679ZM267.783 38.2679H270.73V41.2143H267.783V38.2679ZM264.837 38.2679H267.783V41.2143H264.837V38.2679ZM261.89 38.2679H264.837V41.2143H261.89V38.2679ZM258.944 41.2143H261.89V44.1607H258.944V41.2143ZM261.89 41.2143H264.837V44.1607H261.89V41.2143ZM270.73 41.2143H273.676V44.1607H270.73V41.2143ZM267.783 41.2143H270.73V44.1607H267.783V41.2143ZM264.837 41.2143H267.783V44.1607H264.837V41.2143ZM285.273 32.375H288.219V35.3214H285.273V32.375ZM288.219 35.3214H291.166V38.2679H288.219V35.3214ZM285.273 35.3214H288.219V38.2679H285.273V35.3214ZM285.273 38.2679H288.219V41.2143H285.273V38.2679ZM288.219 38.2679H291.166V41.2143H288.219V38.2679ZM288.219 41.2143H291.166V44.1607H288.219V41.2143ZM291.166 41.2143H294.112V44.1607H291.166V41.2143ZM294.112 41.2143H297.059V44.1607H294.112V41.2143ZM297.059 38.2679H300.005V41.2143H297.059V38.2679ZM294.112 38.2679H297.059V41.2143H294.112V38.2679ZM291.166 38.2679H294.112V41.2143H291.166V38.2679ZM297.059 41.2143H300.005V44.1607H297.059V41.2143ZM300.005 41.2143H302.952V44.1607H300.005V41.2143ZM300.005 44.1607H302.952V47.1071H300.005V44.1607ZM297.059 44.1607H300.005V47.1071H297.059V44.1607ZM297.059 47.1071H300.005V50.0536H297.059V47.1071ZM300.005 47.1071H302.952V50.0536H300.005V47.1071ZM297.059 50.0536H300.005V53H297.059V50.0536ZM294.112 47.1071H297.059V50.0536H294.112V47.1071ZM291.166 47.1071H294.112V50.0536H291.166V47.1071ZM288.219 47.1071H291.166V50.0536H288.219V47.1071ZM285.273 47.1071H288.219V50.0536H285.273V47.1071ZM288.219 50.0536H291.166V53H288.219V50.0536ZM291.166 50.0536H294.112V53H291.166V50.0536ZM294.112 50.0536H297.059V53H294.112V50.0536ZM300.005 32.375H302.952V35.3214H300.005V32.375ZM297.059 32.375H300.005V35.3214H297.059V32.375ZM297.059 29.4286H300.005V32.375H297.059V29.4286ZM294.112 29.4286H297.059V32.375H294.112V29.4286ZM291.166 29.4286H294.112V32.375H291.166V29.4286ZM288.219 29.4286H291.166V32.375H288.219V29.4286ZM288.219 32.375H291.166V35.3214H288.219V32.375ZM291.166 32.375H294.112V35.3214H291.166V32.375ZM294.112 32.375H297.059V35.3214H294.112V32.375ZM308.648 23.5357H314.541V29.4286H308.648V23.5357ZM308.648 32.375H314.541V53H308.648V32.375ZM337.939 53H334.992V50.0536H337.939V53ZM337.939 50.0536H334.992V47.1071H337.939V50.0536ZM334.992 50.0536H332.046V47.1071H334.992V50.0536ZM332.046 53H329.1V50.0536H332.046V53ZM329.1 53H326.153V50.0536H329.1V53ZM326.153 53H323.207V50.0536H326.153V53ZM326.153 50.0536H323.207V47.1071H326.153V50.0536ZM329.1 50.0536H326.153V47.1071H329.1V50.0536ZM323.207 50.0536H320.26V47.1071H323.207V50.0536ZM323.207 47.1071H320.26V44.1607H323.207V47.1071ZM323.207 35.3214H320.26V32.375H323.207V35.3214ZM326.153 35.3214H323.207V32.375H326.153V35.3214ZM326.153 47.1071H323.207V44.1607H326.153V47.1071ZM329.1 35.3214H326.153V32.375H329.1V35.3214ZM326.153 32.375H323.207V29.4286H326.153V32.375ZM329.1 32.375H326.153V29.4286H329.1V32.375ZM332.046 32.375H329.1V29.4286H332.046V32.375ZM334.992 32.375H332.046V29.4286H334.992V32.375ZM337.939 32.375H334.992V29.4286H337.939V32.375ZM337.939 35.3214H334.992V32.375H337.939V35.3214ZM334.992 35.3214H332.046V32.375H334.992V35.3214ZM337.939 38.2679H334.992V35.3214H337.939V38.2679ZM340.885 35.3214H337.939V32.375H340.885V35.3214ZM340.885 38.2679H337.939V35.3214H340.885V38.2679ZM340.885 41.2143H337.939V38.2679H340.885V41.2143ZM340.885 44.1607H337.939V41.2143H340.885V44.1607ZM340.885 47.1071H337.939V44.1607H340.885V47.1071ZM340.885 50.0536H337.939V47.1071H340.885V50.0536ZM337.939 47.1071H334.992V44.1607H337.939V47.1071ZM337.939 44.1607H334.992V41.2143H337.939V44.1607ZM337.939 41.2143H334.992V38.2679H337.939V41.2143ZM332.046 35.3214H329.1V32.375H332.046V35.3214ZM332.046 50.0536H329.1V47.1071H332.046V50.0536ZM337.939 50.0536H340.885V53H337.939V50.0536ZM332.046 38.2679H334.992V41.2143H332.046V38.2679ZM329.1 38.2679H332.046V41.2143H329.1V38.2679ZM326.153 38.2679H329.1V41.2143H326.153V38.2679ZM323.207 38.2679H326.153V41.2143H323.207V38.2679ZM320.26 41.2143H323.207V44.1607H320.26V41.2143ZM323.207 41.2143H326.153V44.1607H323.207V41.2143ZM332.046 41.2143H334.992V44.1607H332.046V41.2143ZM329.1 41.2143H332.046V44.1607H329.1V41.2143ZM326.153 41.2143H329.1V44.1607H326.153V41.2143Z" fill="#F9F9F9"/>
<path d="M9.06338 202.571C9.06338 198.281 9.11104 193.085 9.20638 186.984C9.30171 180.787 9.39704 174.162 9.49238 167.107C9.68304 159.957 9.87371 152.759 10.0644 145.514C10.255 138.173 10.4457 131.214 10.6364 124.636C10.9224 117.963 11.1607 112.1 11.3514 107.047C11.542 101.899 11.7327 97.9903 11.9234 95.321C14.402 95.1303 17.8817 94.9873 22.3624 94.892C26.9384 94.7967 32.6107 94.749 39.3794 94.749C47.1967 106.284 55.3477 118.582 63.8324 131.643C72.4124 144.608 81.1354 158.479 90.0014 173.256L86.8554 94.606C89.334 94.606 92.0034 94.7013 94.8634 94.892C97.8187 94.9873 100.679 95.1303 103.443 95.321C103.443 103.329 103.396 111.909 103.3 121.061C103.205 130.118 103.11 139.127 103.014 148.088C102.919 157.049 102.776 165.391 102.585 173.113C102.395 180.74 102.204 187.175 102.013 192.418C101.918 197.661 101.775 201.093 101.584 202.714C99.5824 202.809 96.8654 202.905 93.4334 203C90.0967 203.095 86.7124 203.143 83.2804 203.143C79.8484 203.238 77.036 203.286 74.8434 203.286C67.312 190.988 58.9227 178.023 49.6754 164.39C40.5234 150.757 31.276 137.22 21.9334 123.778L25.6514 203.429C20.3127 203.429 14.7834 203.143 9.06338 202.571ZM159.037 180.692C156.558 180.692 153.984 180.692 151.315 180.692C148.741 180.597 146.072 180.454 143.307 180.263C141.21 187.699 139.112 195.469 137.015 203.572L119.855 202.428C125.194 184.41 131.152 166.249 137.73 147.945C144.308 129.546 151.315 111.671 158.751 94.32C162.278 93.9387 166.187 93.605 170.477 93.319C174.862 93.033 179.343 92.89 183.919 92.89C189.734 106.999 195.931 123.301 202.509 141.796C209.087 160.291 215.856 180.215 222.815 201.57C217.286 202.523 212.042 203.238 207.085 203.715C202.223 204.192 197.266 204.43 192.213 204.43C190.211 196.422 187.971 187.985 185.492 179.119C177.007 180.168 168.189 180.692 159.037 180.692ZM164.614 109.621C162.612 115.055 160.086 122.586 157.035 132.215C154.08 141.844 150.791 153.141 147.168 166.106C150.981 166.583 154.89 166.916 158.894 167.107C162.993 167.298 167.379 167.393 172.05 167.393C173.766 167.393 175.482 167.393 177.198 167.393C179.009 167.298 180.678 167.25 182.203 167.25C180.106 159.623 177.961 152.235 175.768 145.085C173.671 137.84 171.669 131.214 169.762 125.208C167.855 119.107 166.139 113.911 164.614 109.621ZM237.791 203.143C238.935 179.977 239.507 156.43 239.507 132.501C239.507 128.497 239.459 124.112 239.364 119.345C239.364 114.483 239.316 109.907 239.221 105.617C239.221 101.327 239.173 97.895 239.078 95.321C240.222 95.1303 242.128 94.9873 244.798 94.892C247.562 94.7967 250.565 94.749 253.807 94.749C256.381 94.749 258.907 94.7967 261.386 94.892C263.96 94.9873 266.152 95.1303 267.964 95.321C267.773 101.232 267.63 107.142 267.535 113.053C267.439 118.964 267.344 124.588 267.249 129.927C267.249 135.17 267.249 139.746 267.249 143.655C267.249 156.62 267.392 167.87 267.678 177.403C268.059 186.936 268.583 195.373 269.251 202.714C264.103 202.905 258.859 203 253.521 203C248.277 203.095 243.034 203.143 237.791 203.143ZM375.836 203.715C373.643 203.62 370.021 203.524 364.968 203.429C359.915 203.334 353.766 203.238 346.521 203.143C339.371 203.143 331.458 203.095 322.783 203C314.203 203 305.289 203 296.042 203C295.184 183.361 294.564 164.676 294.183 146.944C293.802 129.212 293.611 111.957 293.611 95.178C295.804 95.0827 299.617 95.035 305.051 95.035C310.485 94.9397 316.586 94.892 323.355 94.892C323.355 101.851 323.307 109.526 323.212 117.915C323.212 126.304 323.117 134.884 322.926 143.655C322.831 152.426 322.688 161.006 322.497 169.395C322.402 177.689 322.211 185.363 321.925 192.418C331.84 192.418 341.468 192.323 350.811 192.132C360.154 191.846 368.352 191.512 375.407 191.131L375.836 203.715ZM431.985 203.715C426.741 203.715 421.307 203 415.683 201.57C410.153 200.14 404.862 198.186 399.81 195.707C394.852 193.133 390.658 190.225 387.226 186.984C389.418 183.838 391.849 180.692 394.519 177.546C397.188 174.305 400.143 171.111 403.385 167.965C407.103 171.969 411.202 175.687 415.683 179.119C420.163 182.456 424.644 185.173 429.125 187.27C433.701 189.367 437.895 190.416 441.709 190.416C445.141 190.416 448.191 189.51 450.861 187.699C453.625 185.792 455.008 183.075 455.008 179.548C455.008 176.211 453.721 173.256 451.147 170.682C448.573 168.013 445.188 165.582 440.994 163.389C436.894 161.101 432.509 158.861 427.838 156.668C423.738 154.761 419.687 152.759 415.683 150.662C411.679 148.565 408.008 146.277 404.672 143.798C401.43 141.319 398.809 138.555 396.807 135.504C394.9 132.358 393.947 128.831 393.947 124.922C393.947 121.013 394.948 117.2 396.95 113.482C399.047 109.764 401.955 106.427 405.673 103.472C409.391 100.421 413.776 98.038 418.829 96.322C423.977 94.5107 429.601 93.605 435.703 93.605C442.662 93.605 449.669 94.7967 456.724 97.18C463.874 99.5633 470.07 102.995 475.314 107.476C473.598 110.717 471.262 113.911 468.307 117.057C465.447 120.203 462.634 122.872 459.87 125.065C454.054 119.536 448.287 114.912 442.567 111.194C436.847 107.381 431.46 105.474 426.408 105.474C422.69 105.474 419.877 106.427 417.971 108.334C416.159 110.145 415.254 112.1 415.254 114.197C415.254 116.485 416.302 118.582 418.4 120.489C420.497 122.396 423.262 124.255 426.694 126.066C430.126 127.877 433.891 129.736 437.991 131.643C442.281 133.645 446.618 135.79 451.004 138.078C455.484 140.366 459.584 142.988 463.302 145.943C467.115 148.803 470.166 152.092 472.454 155.81C474.742 159.528 475.886 163.77 475.886 168.537C475.886 173.304 474.694 177.832 472.311 182.122C470.023 186.317 466.829 190.035 462.73 193.276C458.726 196.517 454.054 199.091 448.716 200.998C443.472 202.809 437.895 203.715 431.985 203.715Z" fill="url(#paint0_linear_242_3)"/>
<defs>
<linearGradient id="paint0_linear_242_3" x1="0" y1="140.5" x2="480" y2="140.5" gradientUnits="userSpaceOnUse">
<stop stop-color="#D9E5FF"/>
<stop offset="1" stop-color="#9BAAC9"/>
</linearGradient>
</defs>
</svg>
